<svg xmlns="http://www.w3.org/2000/svg" width="1024" height="1024"><path d="M202 64.26a48.01 48.01 0 0 0-30 65.94l72 168a48.01 48.01 0 0 0 44 30.1h448a48.01 48.01 0 0 0 44.2-30.1l71.6-168a48.01 48.01 0 0 0-43.5-65.94H216a48.01 48.01 0 0 0-10 0 48.01 48.01 0 0 0-4 0zm184 96.04h252l-126 24-126-24zm-90 14l134 26-114 20-20-46zm432.3 0l-20.5 46-113.8-22 134.3-24zm-216.3 40l94 18H418l94-18zm-248 154l-8 38-16 91.9 56 62.1-82 89.9-30 172.2-10 57.6 34 64h268c-7.6-8.3-12-19.2-12-32 0-26.2 21.5-48 48-48s48 21.8 48 48c0 12.8-4.4 23.7-12 32h268l33.9-64-9.6-57.6-30.1-172.2-81.9-89.9 55.7-62.1-16-91.9-7.7-38H264zm-200 32v128c0-8.9 7.14-16 16-16s16 7.1 16 16v64c0 8.9-7.14 16-16 16s-16-7.1-16-16V720l160-159.7-160-160zm896 0l-160 160L960 720V592.3c0 8.9-7 16-16 16s-16-7.1-16-16v-64c0-8.9 7-16 16-16s16 7.1 16 16v-128zm-614 64h332l12 64H334l12-64zm-16 96h364l11.9 64H318l12-64zm-18 96h400.3L734.1 784H290l22-127.7z"/></svg>