<svg xmlns="http://www.w3.org/2000/svg" width="1024" height="1024"><path d="M696 64c-145.1 0-264 118.9-264 264v120H96.04c-3.3-.5-6.7-.5-10 0-13.22 4.4-22.69 18.1-22 32v448c0 16.6 15.24 32 32 32H672c16.8 0 32-15.4 32-32V480c0-16.8-15.2-32-32-32h-96V328c0-67.3 52.7-120 120-120 67.5 0 120 52.7 120 120v256c0 39.7 32 72 72.3 72 9.6 0 19.2-2.4 27.5-6 9-3.7 15.4-9.5 22.4-16 6.4-6.5 12.2-13.4 16-22 3.2-8.7 5.8-17.9 5.8-28V328c0-145.1-119-264-264-264zm0 64c110.4 0 200 89.8 200 200v256c0 1.5-7 9-7.7 8H880V328c0-101.5-82.6-184-184-184-101.5 0-184 82.5-184 184v120h-16V328c0-110.2 89.8-200 200-200zM160.1 544H608v320H160.1zM384 592c-35.3 0-64 28.7-64 64 0 23.1 13.6 40.8 32 51.8V784c-.2 16.6 15.1 32.6 32 32.6 17 0 32.3-16 32-32.6v-76.2c18.4-11 32-28.7 32-51.8 0-35.3-28.6-64-64-64z"/></svg>