<svg xmlns="http://www.w3.org/2000/svg" width="1024" height="1024"><path d="M512 64.83c-145.1 0-264 118.87-264 263.97V448h-24c-3.3-.5-6.7-.5-10 0-13.2 4.4-22.6 18.1-22 32v448c0 16.6 15.3 32 32 32h576c16.6 0 32-15.4 32-32V480c0-16.8-15.4-32-32-32h-23.7V328.8C775.7 183.7 657.1 64.83 512 64.83zm0 63.97c110.2 0 199.7 89.8 200.3 200V448H696V328.8c0-101.5-82.5-184-184-184s-184 82.5-184 184V448h-16V328.8c0-110.2 89.8-200 200-200zm0 80c67.3 0 120 52.7 120 120V448H392V328.8c0-67.3 52.7-120 120-120zM288 544h448v320H288zm224 48c-35.3 0-64 28.7-64 64 0 23.1 13.6 40.8 32 51.8V784c-.2 16.6 15.1 32.6 32 32.6 17 0 32.3-16 32-32.6v-76.2c18.4-11 32-28.7 32-51.8 0-35.3-28.6-64-64-64z"/></svg>