<?xml version="1.0" encoding="UTF-8" standalone="no"?>
<svg
   width="896"
   height="896"
   version="1.1"
   id="svg1"
   sodipodi:docname="notify-emergency.svg"
   xmlns:inkscape="http://www.inkscape.org/namespaces/inkscape"
   xmlns:sodipodi="http://sodipodi.sourceforge.net/DTD/sodipodi-0.dtd"
   xmlns="http://www.w3.org/2000/svg"
   xmlns:svg="http://www.w3.org/2000/svg">
  <defs
     id="defs1" />
  <sodipodi:namedview
     id="namedview1"
     pagecolor="#ffffff"
     bordercolor="#000000"
     borderopacity="0.25"
     inkscape:showpageshadow="2"
     inkscape:pageopacity="0.0"
     inkscape:pagecheckerboard="0"
     inkscape:deskcolor="#d1d1d1" />
  <path
     d="M 288,0 0,288 V 608 L 288,896 H 608 L 896,608 V 288 L 608,0 Z m 160,96 c 224,0 64,384 0,448 C 384,480 224,96 448,96 Z m 0,512 c 53,0 96,42.9 96,96 0,53.1 -43,96 -96,96 -53,0 -96,-42.9 -96,-96 0,-53.1 43,-96 96,-96 z"
     id="path1"
     style="fill:#f94343;fill-opacity:0.67" />
  <path
     d="m 448,608 c 53,0 96,42.9 96,96 0,53.1 -43,96 -96,96 -53,0 -96,-42.9 -96,-96 0,-53.1 43,-96 96,-96 z"
     id="path4" />
  <path
     d="m 448,96 c 224,0 64,384 0,448 C 384,480 224,96 448,96 Z"
     id="path3" />
</svg>
