<?xml version="1.0" encoding="UTF-8" standalone="no"?>
<svg
   width="894.54181"
   height="865.34155"
   version="1.1"
   id="svg1"
   xmlns="http://www.w3.org/2000/svg"
   xmlns:svg="http://www.w3.org/2000/svg">
  <defs
     id="defs1" />
  <path
     d="m 433.1487,1.4171201 c -17.7,4.22 -33.4,16.6199999 -42,33.2199999 l -383.9999955,730.9 c -22.4299995,40.3 11.1400005,100.4 56.0000005,99.8 H 831.1487 c 44.8,0.6 78.7,-59.5 56.3,-99.8 l -384.3,-730.9 c -13.1,-25.0999999 -43.1,-39.3499999 -70,-33.2199999 z m 14,232.5199999 c 128,0 64,299.1 0,365.6 -64,-66.5 -128,-365.6 0,-365.6 z m 0,399.1 c 35.3,0 64,29.4 64,65.9 0,37.1 -28.7,66.6 -64,66.6 -35.3,0 -64,-29.5 -64,-66.6 0,-36.5 28.7,-65.9 64,-65.9 z"
     id="path1"
     style="fill:#ffce3a;fill-opacity:0.67" />
  <path
     d="m 447.1487,633.03712 c 35.3,0 64,29.4 64,65.9 0,37.1 -28.7,66.6 -64,66.6 -35.3,0 -64,-29.5 -64,-66.6 0,-36.5 28.7,-65.9 64,-65.9 z"
     id="path4" />
  <path
     d="m 447.1487,233.93712 c 128,0 64,299.1 0,365.6 -64,-66.5 -128,-365.6 0,-365.6 z"
     id="path3" />
</svg>
